<?xml version="1.0" encoding="utf-8"?>
<!-- Generator: Adobe Illustrator 24.1.3, SVG Export Plug-In . SVG Version: 6.00 Build 0)  -->
<svg version="1.1" id="Layer_1" focusable="false" xmlns="http://www.w3.org/2000/svg" xmlns:xlink="http://www.w3.org/1999/xlink"
	 x="0px" y="0px" viewBox="0 0 512 512" style="enable-background:new 0 0 512 512;" xml:space="preserve">
<style type="text/css">
	.st0{fill:#D39D37;}
</style>
<path class="st0" d="M256,9C119,9,8,120,8,257s111,248,248,248s248-111,248-248S393,9,256,9z M256,57c110.5,0,200,89.5,200,200
	c0,110.5-89.5,200-200,200c-110.5,0-200-89.5-200-200C56,146.5,145.5,57,256,57"/>
<path class="st0" d="M272.4,180.4l60.2,60.3L201.9,371.3l-53.6,6c-6.2,0.7-11.8-3.7-12.5-9.9c-0.1-0.9-0.1-1.7,0-2.6l6-53.7
	L272.4,180.4z M369.8,171.5l-28.3-28.2c-8.8-8.8-23.1-8.8-31.9,0L283,169.8l60.2,60.2l26.6-26.6
	C378.6,194.6,378.6,180.3,369.8,171.5z"/>
</svg>
