<?xml version="1.0" encoding="utf-8"?>
<!-- Generator: Adobe Illustrator 24.1.3, SVG Export Plug-In . SVG Version: 6.00 Build 0)  -->
<svg version="1.1" id="Layer_1" focusable="false" xmlns="http://www.w3.org/2000/svg" xmlns:xlink="http://www.w3.org/1999/xlink"
	 x="0px" y="0px" viewBox="0 0 512 512" style="enable-background:new 0 0 512 512;" xml:space="preserve">
<style type="text/css">
	.st0{fill:#CE9C2A;}
	.st1{fill:none;stroke:#D39D37;stroke-width:31.2445;stroke-linecap:round;stroke-linejoin:round;stroke-miterlimit:10;}
</style>
<path class="st0" d="M256,8C119,8,8,119,8,256s111,248,248,248s248-111,248-248S393,8,256,8z M256,456c-110.5,0-200-89.5-200-200
	S145.5,56,256,56s200,89.5,200,200S366.5,456,256,456z"/>
<g transform="translate(0.25 0.25)">
	<path class="st1" d="M371.8,255.7c0,65.2-52.8,118-118,118s-118-52.8-118-118s52.8-118,118-118c0,0,0,0,0,0
		c43.9,1.1,83.2,27.4,101.1,67.4"/>
	<path class="st1" d="M354.9,120.8v84.3h-84.3"/>
</g>
</svg>
